<svg width="200" height="200" viewBox="0 0 200 200" fill="none" xmlns="http://www.w3.org/2000/svg">
  <g clip-path="url(#clip0_234_869)">
    <path fill-rule="evenodd" clip-rule="evenodd"
      d="M50 0H0V100H50C22.3858 100 0 122.386 0 150V200H100V150C100 177.614 122.386 200 150 200H200V100H150C177.614 100 200 77.6142 200 50V0H100V50C100 22.3858 77.6142 0 50 0ZM100 100H50C77.6142 100 100 122.386 100 150V100ZM100 100V50C100 77.6142 122.386 100 150 100H100Z"
      fill="url(#paint0_linear_234_869)" />
  </g>
  <defs>
    <linearGradient id="paint0_linear_234_869" x1="100" y1="0" x2="100" y2="200" gradientUnits="userSpaceOnUse">
      <stop stop-color="#A7B5FF" />
      <stop offset="1" stop-color="#F3ACFF" />
    </linearGradient>
    <clipPath id="clip0_234_869">
      <rect width="200" height="200" fill="white" />
    </clipPath>
  </defs>
</svg>